<?xml version="1.0" encoding="UTF-8"?>
<svg id="Layer_1" data-name="Layer 1" xmlns="http://www.w3.org/2000/svg" viewBox="0 0 800 800">
  <defs>
    <style>
      .cls-1 {
        fill: #c4c4c4;
      }
    </style>
  </defs>
  <path class="cls-1" d="M284.3,363.15c13.27-2.5,28.47,9.58,20.15,20.44-15.53,20.27-56.64-13.56-20.15-20.44Z"/>
  <path class="cls-1" d="M463.3,367.47c30.75-9.26,41.85,26.43,11.4,28.34-22.51,1.42-31.47-22.3-11.4-28.34Z"/>
  <path class="cls-1" d="M576.56,466.14c-1.05,1.5-26.04,8.08-32.44,11.32-18.12,9.16-23.54,18.08-35.89,30.77-15.57,16-20.24-14.58-27.69-26.27-3.15-4.95-20.46-31.53-28.44-23.61-2.81,2.79,31.42,53.19,29.15,64.45-.48,2.37-6.51,7.24-10.38,6.35-4.65-1.06-8.08-13.85-11.11-18.09-20.24-28.38-4.97,25.42-8.26,30.06-2.4,3.38-37.82,13.69-45.09,15.29-56.17,12.38-107.8-2.16-143.67-48.33-7.39-9.52-11.57-23.86-20.92-33.25-18.06-18.15-43.7-11.79-10.6-43.63,2.35-12.57-17.94-3.39-20.82-6.19-5.37-5.23,12.55-73.16,12.18-85.68-.17-5.73-13.69-23.37-17.13-32.28-8.11-21.01-4.43-35.67-8.47-54.03-10.48-47.6-29.65-94.38-24.03-144.69,27.76,9.05,108.94,134.04,119.54,137,8.72,2.43,58.75-10.9,74.17-12,30.39-2.18,64.61.97,94.81,5.2,24.22,3.39,24.39,16.36,44.7-7.37,40.44-47.25,70.29-109.34,129.22-139.49.85,45.36-14.7,88.53-23.85,132.37-6.79,32.55-2.53,62.85-24.38,92.29-5.73,7.72-24.65,22.22-26.16,28.22-1.64,6.54,14.2,63.77,15.61,78.85.68,7.27,2.02,39.82-.05,42.75ZM602.07,175.02c-5.42.1-8.57-1.88-12.68,2.68-3.84,4.26-15.6,24.24-18.73,30.46-7.36,14.64-28.3,85.16-37.73,87.1-4.59.94-12.23-5.24-18.33-3.57-2.89,2.69,22.53,47.44,41.72,35.5,3.03-1.88,18.57-27.88,20.88-33.31,15.43-36.31,11.87-81.16,24.86-118.85ZM246.76,311.25c3.9-3.5,17.92-24.66,17.06-29.29-.82-4.47-25.77-41.55-30.82-48.29-3.34-4.46-25.97-34.94-30.9-29.48-3.31,3.66,13.15,52.24,15.58,61.47s6.8,65.59,29.08,45.6ZM302.04,462.5c.58-.45,1.96-9.18,4.87-13.83,23.02-36.71,71.73-78.06,15.71-117.1-20.75-14.47-14.27.76-19.01,1.84-12.37,2.82-19.92-2.66-36.26,4.79-26.54,12.1-37.4,36.24-13.27,57.73,24.35,21.69,42.96,8.89,68.83-.05,2.61,2.26-34.02,48.13-32.9,60.48.29,3.16,9.09,8.39,12.02,6.15ZM403.03,374.06c4.27,4.03,15.47,3.68,22.16,9.1,13.67,11.08,22.05,38.23,45.9,41.68,60.66,8.77,71.98-81.79,12.08-91.3-38.15-6.06-36.27,14.33-54.82,19.8-9.29,2.74-20.71-.02-30.42.84-1.77,1.74,2.04,16.99,5.1,19.88ZM409.45,490.61c4.67-4.76,10.41-23.07,9.46-30.01-5.31-38.81-114.73-41.93-95.16,24.02,2.89,9.75,31.46,29.08,28.4,13.25-1.55-8-9.69-10.33-8.37-18.7,12.26,6.58,11.56,26.26,27.64,28.73,12.72,1.95,8.93-27.53,20.26-32.88,1.66,11.33,5.33,28.29,17.77,15.59Z"/>
  <path class="cls-1" d="M397.92,458.3l-45.82-12.43c19.15-2.92,34.97-8.23,45.82,12.43Z"/>
  <g>
    <path class="cls-1" d="M406.23,579.18c-5.53,37.78-6.33,76.43-12.93,114.12-.78,4.46-1.43,15.58-7.85,15.01l-8.38-77.06c1.98-28.6-12.32-59.36,29.16-52.07Z"/>
    <path class="cls-1" d="M368.76,579.16c4.19,4.14-11.26,102.21-14.57,116.73-1.06,4.66-.09,13.49-6.24,12.43-2.34-19.37-9.56-120.37.35-128.76,1.14-.96,19.74-1.12,20.47-.4Z"/>
    <path class="cls-1" d="M306.25,577.08c2.46-8.28,22.08-11.45,25,4.13,5.04,26.87-12.47,70.33-16.71,97.92l-8.29-22.89c3.83-20.64-5.21-61.63,0-79.17Z"/>
    <path class="cls-1" d="M422.88,683.34c-8.77.35-7.91,1.88-8.31-6.2-1.68-34.18,5.78-65.54,3.99-99.43,20.7-15.83,22.2.69,21.04,20.19-1.68,28.36-12.37,57.51-16.72,85.44Z"/>
    <path class="cls-1" d="M452.12,658.33l-4.45-89.17c9.36-5.57,19.12-9.71,21.21,3.75,1.7,10.99-5.45,57.68-8.47,70.82-1.36,5.9.1,12.93-8.29,14.59Z"/>
    <path class="cls-1" d="M489.55,637.5c-8.09-1.72-7.39-8.27-8.38-14.5-2.29-14.39-7.16-54.18-4.27-66.12.77-3.16,11.85-7.19,14.41-6.7,16.66,3.19-2.44,73.59-1.76,87.32Z"/>
    <path class="cls-1" d="M289.57,637.48c-5.31,6.27-7.71.21-8.18-6.27-.89-12.26-8.59-72.64-4.29-77.04,3.68-3.76,18.63,3.79,19.96,10.91,1.01,5.42-6.51,23.49-7.47,32.83-.79,7.61,1.39,37.9-.02,39.56Z"/>
    <path class="cls-1" d="M256.25,537.5c13.51,6.51,8.73,30.7,7.18,42.61-.53,4.04-1.35,16.69-7.18,15.72v-58.33Z"/>
  </g>
</svg>